<svg width="2156px" height="404px"
 viewBox="0.00 0.00 2156.00 404.00" xmlns="http://www.w3.org/2000/svg" xmlns:xlink="http://www.w3.org/1999/xlink">
<g id="graph0" class="graph" transform="scale(1.0 1.0) rotate(0.0) translate(4.0 400.0)">
<title>getType</title>
<polygon fill="white" stroke="transparent" points="-4,4 -4,-400 2152,-400 2152,4 -4,4"/>
<!-- addr_394742 -->
<g id="node1" class="node">
<title>addr_394742</title>
<polygon fill="none" stroke="black" points="376,-202 0,-202 0,-149 376,-149 376,-202"/>
<text text-anchor="middle" x="188" y="-186.8" font-family="Times New Roman,serif" font-size="14.00">Start_Address: 394742:</text>
<text text-anchor="middle" x="188" y="-171.8" font-family="Times New Roman,serif" font-size="14.00">const&#45;string v0, &quot;vnd.android.cursor.item/vnd.jwtc.chesspuzzle&quot;</text>
<text text-anchor="middle" x="188" y="-156.8" font-family="Times New Roman,serif" font-size="14.00">goto &#45;0x3</text>
</g>
<!-- addr_394740 -->
<g id="node2" class="node">
<title>addr_394740</title>
<polygon fill="none" stroke="black" points="1451,-38 1303,-38 1303,0 1451,0 1451,-38"/>
<text text-anchor="middle" x="1377" y="-22.8" font-family="Times New Roman,serif" font-size="14.00">Start_Address: 394740:</text>
<text text-anchor="middle" x="1377" y="-7.8" font-family="Times New Roman,serif" font-size="14.00">return&#45;object v0</text>
</g>
<!-- addr_394742&#45;&gt;addr_394740 -->
<g id="edge1" class="edge">
<title>addr_394742&#45;&gt;addr_394740</title>
<path fill="none" stroke="black" d="M226.03,-148.99C264.33,-124.8 326.05,-89.87 385,-74 555.02,-28.21 1084.87,-21.11 1292.41,-20.11"/>
<polygon fill="black" stroke="black" points="1292.66,-23.61 1302.64,-20.07 1292.63,-16.61 1292.66,-23.61"/>
</g>
<!-- addr_394668 -->
<g id="node3" class="node">
<title>addr_394668</title>
<polygon fill="none" stroke="black" points="1457.5,-396 910.5,-396 910.5,-313 1457.5,-313 1457.5,-396"/>
<text text-anchor="middle" x="1184" y="-380.8" font-family="Times New Roman,serif" font-size="14.00">Start_Address: 394668:</text>
<text text-anchor="middle" x="1184" y="-365.8" font-family="Times New Roman,serif" font-size="14.00">sget&#45;object v0, Ljwtc/chess/ChessPuzzleProvider;&#45;&gt;sUriMatcher:Landroid/content/UriMatcher;</text>
<text text-anchor="middle" x="1184" y="-350.8" font-family="Times New Roman,serif" font-size="14.00">invoke&#45;virtual {v0, v4}, Landroid/content/UriMatcher;&#45;&gt;match(Landroid/net/Uri;)I</text>
<text text-anchor="middle" x="1184" y="-335.8" font-family="Times New Roman,serif" font-size="14.00">move&#45;result v0</text>
<text text-anchor="middle" x="1184" y="-320.8" font-family="Times New Roman,serif" font-size="14.00">packed&#45;switch v0, +0x28</text>
</g>
<!-- addr_394668&#45;&gt;addr_394742 -->
<g id="edge4" class="edge">
<title>addr_394668&#45;&gt;addr_394742</title>
<path fill="none" stroke="black" d="M910.32,-338.24C718.76,-325.48 480.66,-304.88 385,-277 331.25,-261.34 274.82,-230.91 236.2,-207.62"/>
<polygon fill="black" stroke="black" points="237.63,-204.39 227.27,-202.17 233.98,-210.37 237.63,-204.39"/>
</g>
<!-- addr_394686 -->
<g id="node4" class="node">
<title>addr_394686</title>
<polygon fill="none" stroke="black" points="982,-277 394,-277 394,-74 982,-74 982,-277"/>
<text text-anchor="middle" x="688" y="-261.8" font-family="Times New Roman,serif" font-size="14.00">Start_Address: 394686:</text>
<text text-anchor="middle" x="688" y="-246.8" font-family="Times New Roman,serif" font-size="14.00">new&#45;instance v0, Ljava/lang/IllegalArgumentException;</text>
<text text-anchor="middle" x="688" y="-231.8" font-family="Times New Roman,serif" font-size="14.00">new&#45;instance v1, Ljava/lang/StringBuilder;</text>
<text text-anchor="middle" x="688" y="-216.8" font-family="Times New Roman,serif" font-size="14.00">invoke&#45;direct {v1}, Ljava/lang/StringBuilder;&#45;&gt;&lt;init&gt;()V</text>
<text text-anchor="middle" x="688" y="-201.8" font-family="Times New Roman,serif" font-size="14.00">const&#45;string v2, &quot;Unknown URI &quot;</text>
<text text-anchor="middle" x="688" y="-186.8" font-family="Times New Roman,serif" font-size="14.00">invoke&#45;virtual {v1, v2}, Ljava/lang/StringBuilder;&#45;&gt;append(Ljava/lang/String;)Ljava/lang/StringBuilder;</text>
<text text-anchor="middle" x="688" y="-171.8" font-family="Times New Roman,serif" font-size="14.00">move&#45;result&#45;object v1</text>
<text text-anchor="middle" x="688" y="-156.8" font-family="Times New Roman,serif" font-size="14.00">invoke&#45;virtual {v1, v4}, Ljava/lang/StringBuilder;&#45;&gt;append(Ljava/lang/Object;)Ljava/lang/StringBuilder;</text>
<text text-anchor="middle" x="688" y="-141.8" font-family="Times New Roman,serif" font-size="14.00">move&#45;result&#45;object v1</text>
<text text-anchor="middle" x="688" y="-126.8" font-family="Times New Roman,serif" font-size="14.00">invoke&#45;virtual {v1}, Ljava/lang/StringBuilder;&#45;&gt;toString()Ljava/lang/String;</text>
<text text-anchor="middle" x="688" y="-111.8" font-family="Times New Roman,serif" font-size="14.00">move&#45;result&#45;object v1</text>
<text text-anchor="middle" x="688" y="-96.8" font-family="Times New Roman,serif" font-size="14.00">invoke&#45;direct {v0, v1}, Ljava/lang/IllegalArgumentException;&#45;&gt;&lt;init&gt;(Ljava/lang/String;)V</text>
<text text-anchor="middle" x="688" y="-81.8" font-family="Times New Roman,serif" font-size="14.00">throw v0</text>
</g>
<!-- addr_394668&#45;&gt;addr_394686 -->
<g id="edge2" class="edge">
<title>addr_394668&#45;&gt;addr_394686</title>
<path fill="none" stroke="black" d="M1070.21,-312.89C1042.35,-302.95 1011.27,-291.86 979.19,-280.41"/>
<polygon fill="black" stroke="black" points="980.26,-277.08 969.66,-277.01 977.9,-283.67 980.26,-277.08"/>
</g>
<!-- addr_394736 -->
<g id="node5" class="node">
<title>addr_394736</title>
<polygon fill="none" stroke="black" points="1368,-194.5 1000,-194.5 1000,-156.5 1368,-156.5 1368,-194.5"/>
<text text-anchor="middle" x="1184" y="-179.3" font-family="Times New Roman,serif" font-size="14.00">Start_Address: 394736:</text>
<text text-anchor="middle" x="1184" y="-164.3" font-family="Times New Roman,serif" font-size="14.00">const&#45;string v0, &quot;vnd.android.cursor.dir/vnd.jwtc.chesspuzzle&quot;</text>
</g>
<!-- addr_394668&#45;&gt;addr_394736 -->
<g id="edge3" class="edge">
<title>addr_394668&#45;&gt;addr_394736</title>
<path fill="none" stroke="black" d="M1184,-312.89C1184,-279.95 1184,-234.34 1184,-205.12"/>
<polygon fill="black" stroke="black" points="1187.5,-204.79 1184,-194.79 1180.5,-204.79 1187.5,-204.79"/>
</g>
<!-- addr_394748 -->
<g id="node6" class="node">
<title>addr_394748</title>
<polygon fill="none" stroke="black" points="1754,-202 1386,-202 1386,-149 1754,-149 1754,-202"/>
<text text-anchor="middle" x="1570" y="-186.8" font-family="Times New Roman,serif" font-size="14.00">Start_Address: 394748:</text>
<text text-anchor="middle" x="1570" y="-171.8" font-family="Times New Roman,serif" font-size="14.00">const&#45;string v0, &quot;vnd.android.cursor.dir/vnd.jwtc.chesspuzzle&quot;</text>
<text text-anchor="middle" x="1570" y="-156.8" font-family="Times New Roman,serif" font-size="14.00">goto &#45;0x6</text>
</g>
<!-- addr_394668&#45;&gt;addr_394748 -->
<g id="edge5" class="edge">
<title>addr_394668&#45;&gt;addr_394748</title>
<path fill="none" stroke="black" d="M1292.02,-312.95C1319.94,-301.85 1349.79,-289.44 1377,-277 1424.55,-255.26 1477.1,-227.66 1515.34,-206.88"/>
<polygon fill="black" stroke="black" points="1517.15,-209.88 1524.25,-202.02 1513.8,-203.73 1517.15,-209.88"/>
</g>
<!-- addr_394754 -->
<g id="node7" class="node">
<title>addr_394754</title>
<polygon fill="none" stroke="black" points="2148,-202 1772,-202 1772,-149 2148,-149 2148,-202"/>
<text text-anchor="middle" x="1960" y="-186.8" font-family="Times New Roman,serif" font-size="14.00">Start_Address: 394754:</text>
<text text-anchor="middle" x="1960" y="-171.8" font-family="Times New Roman,serif" font-size="14.00">const&#45;string v0, &quot;vnd.android.cursor.item/vnd.jwtc.chesspuzzle&quot;</text>
<text text-anchor="middle" x="1960" y="-156.8" font-family="Times New Roman,serif" font-size="14.00">goto &#45;0x9</text>
</g>
<!-- addr_394668&#45;&gt;addr_394754 -->
<g id="edge6" class="edge">
<title>addr_394668&#45;&gt;addr_394754</title>
<path fill="none" stroke="black" d="M1457.72,-314.23C1460.83,-313.82 1463.92,-313.41 1467,-313 1598.38,-295.61 1636.25,-315.71 1763,-277 1816.37,-260.7 1872.64,-230.51 1911.32,-207.46"/>
<polygon fill="black" stroke="black" points="1913.51,-210.23 1920.27,-202.07 1909.9,-204.23 1913.51,-210.23"/>
</g>
<!-- addr_394736&#45;&gt;addr_394740 -->
<g id="edge7" class="edge">
<title>addr_394736&#45;&gt;addr_394740</title>
<path fill="none" stroke="black" d="M1206.52,-156.47C1241.14,-128.76 1307.53,-75.61 1346.46,-44.45"/>
<polygon fill="black" stroke="black" points="1348.71,-47.13 1354.33,-38.15 1344.33,-41.67 1348.71,-47.13"/>
</g>
<!-- addr_394748&#45;&gt;addr_394740 -->
<g id="edge8" class="edge">
<title>addr_394748&#45;&gt;addr_394740</title>
<path fill="none" stroke="black" d="M1538.13,-148.99C1501.95,-120.03 1443.34,-73.11 1407.67,-44.55"/>
<polygon fill="black" stroke="black" points="1409.55,-41.57 1399.56,-38.06 1405.18,-47.04 1409.55,-41.57"/>
</g>
<!-- addr_394754&#45;&gt;addr_394740 -->
<g id="edge9" class="edge">
<title>addr_394754&#45;&gt;addr_394740</title>
<path fill="none" stroke="black" d="M1919.83,-148.94C1881.17,-125.6 1820.31,-92.06 1763,-74 1662.33,-42.27 1541.02,-29.15 1461.6,-23.75"/>
<polygon fill="black" stroke="black" points="1461.37,-20.23 1451.16,-23.07 1460.92,-27.22 1461.37,-20.23"/>
</g>
<!-- addr_394760 -->
<g id="node8" class="node">
<title>addr_394760</title>
<polygon fill="none" stroke="black" points="1624,-373.5 1476,-373.5 1476,-335.5 1624,-335.5 1624,-373.5"/>
<text text-anchor="middle" x="1550" y="-358.3" font-family="Times New Roman,serif" font-size="14.00">Start_Address: 394760:</text>
<text text-anchor="middle" x="1550" y="-343.3" font-family="Times New Roman,serif" font-size="14.00">packed&#45;switch&#45;payload</text>
</g>
</g>
</svg>
