<svg width="678px" height="522px"
 viewBox="0.00 0.00 678.00 522.00" xmlns="http://www.w3.org/2000/svg" xmlns:xlink="http://www.w3.org/1999/xlink">
<g id="graph0" class="graph" transform="scale(1.0 1.0) rotate(0.0) translate(4.0 518.0)">
<title>checkIsLegalMove</title>
<polygon fill="white" stroke="transparent" points="-4,4 -4,-518 674,-518 674,4 -4,4"/>
<!-- addr_396474 -->
<g id="node1" class="node">
<title>addr_396474</title>
<polygon fill="none" stroke="black" points="148,-514 0,-514 0,-461 148,-461 148,-514"/>
<text text-anchor="middle" x="74" y="-498.8" font-family="Times New Roman,serif" font-size="14.00">Start_Address: 396474:</text>
<text text-anchor="middle" x="74" y="-483.8" font-family="Times New Roman,serif" font-size="14.00">monitor&#45;exit v5</text>
<text text-anchor="middle" x="74" y="-468.8" font-family="Times New Roman,serif" font-size="14.00">return v4</text>
</g>
<!-- addr_396478 -->
<g id="node2" class="node">
<title>addr_396478</title>
<polygon fill="none" stroke="black" points="670,-387.5 522,-387.5 522,-334.5 670,-334.5 670,-387.5"/>
<text text-anchor="middle" x="596" y="-372.3" font-family="Times New Roman,serif" font-size="14.00">Start_Address: 396478:</text>
<text text-anchor="middle" x="596" y="-357.3" font-family="Times New Roman,serif" font-size="14.00">add&#45;int/lit8 v1, v1, 1</text>
<text text-anchor="middle" x="596" y="-342.3" font-family="Times New Roman,serif" font-size="14.00">goto &#45;0x13</text>
</g>
<!-- addr_396474&#45;&gt;addr_396478 -->
<g id="edge1" class="edge">
<title>addr_396474&#45;&gt;addr_396478</title>
<path fill="none" stroke="black" d="M148.4,-480.65C255.87,-471.42 448.69,-451.75 513,-425 530.45,-417.74 547.49,-405.91 561.54,-394.45"/>
<polygon fill="black" stroke="black" points="564.05,-396.91 569.44,-387.78 559.54,-391.55 564.05,-396.91"/>
</g>
<!-- addr_396444 -->
<g id="node3" class="node">
<title>addr_396444</title>
<polygon fill="none" stroke="black" points="390,-261 242,-261 242,-223 390,-223 390,-261"/>
<text text-anchor="middle" x="316" y="-245.8" font-family="Times New Roman,serif" font-size="14.00">Start_Address: 396444:</text>
<text text-anchor="middle" x="316" y="-230.8" font-family="Times New Roman,serif" font-size="14.00">if&#45;ge v1, v3, +0x14</text>
</g>
<!-- addr_396478&#45;&gt;addr_396444 -->
<g id="edge2" class="edge">
<title>addr_396478&#45;&gt;addr_396444</title>
<path fill="none" stroke="black" d="M567.85,-334.31C552.57,-321.53 532.79,-306.77 513,-297 477.83,-279.64 436.27,-267.2 400.42,-258.67"/>
<polygon fill="black" stroke="black" points="401,-255.22 390.47,-256.37 399.42,-262.04 401,-255.22"/>
</g>
<!-- addr_396448 -->
<g id="node4" class="node">
<title>addr_396448</title>
<polygon fill="none" stroke="black" points="631.5,-187 230.5,-187 230.5,-74 631.5,-74 631.5,-187"/>
<text text-anchor="middle" x="431" y="-171.8" font-family="Times New Roman,serif" font-size="14.00">Start_Address: 396448:</text>
<text text-anchor="middle" x="431" y="-156.8" font-family="Times New Roman,serif" font-size="14.00">iget&#45;object v4, v5, Ljwtc/chess/GameControl;&#45;&gt;_jni:Ljwtc/chess/JNI;</text>
<text text-anchor="middle" x="431" y="-141.8" font-family="Times New Roman,serif" font-size="14.00">invoke&#45;virtual {v4, v1}, Ljwtc/chess/JNI;&#45;&gt;getMoveArrayAt(I)I</text>
<text text-anchor="middle" x="431" y="-126.8" font-family="Times New Roman,serif" font-size="14.00">move&#45;result v2</text>
<text text-anchor="middle" x="431" y="-111.8" font-family="Times New Roman,serif" font-size="14.00">invoke&#45;static {v0, v2}, Ljwtc/chess/Move;&#45;&gt;equalPositions(II)Z</text>
<text text-anchor="middle" x="431" y="-96.8" font-family="Times New Roman,serif" font-size="14.00">move&#45;result v4</text>
<text text-anchor="middle" x="431" y="-81.8" font-family="Times New Roman,serif" font-size="14.00">if&#45;eqz v4, +0x5</text>
</g>
<!-- addr_396444&#45;&gt;addr_396448 -->
<g id="edge3" class="edge">
<title>addr_396444&#45;&gt;addr_396448</title>
<path fill="none" stroke="black" d="M334.99,-222.92C343.52,-214.8 354.14,-204.68 365.18,-194.17"/>
<polygon fill="black" stroke="black" points="367.65,-196.65 372.48,-187.22 362.83,-191.58 367.65,-196.65"/>
</g>
<!-- addr_396484 -->
<g id="node6" class="node">
<title>addr_396484</title>
<polygon fill="none" stroke="black" points="212,-179.5 64,-179.5 64,-81.5 212,-81.5 212,-179.5"/>
<text text-anchor="middle" x="138" y="-164.3" font-family="Times New Roman,serif" font-size="14.00">Start_Address: 396484:</text>
<text text-anchor="middle" x="138" y="-149.3" font-family="Times New Roman,serif" font-size="14.00">const/4 v4, 0</text>
<text text-anchor="middle" x="138" y="-134.3" font-family="Times New Roman,serif" font-size="14.00">goto &#45;0x6</text>
<text text-anchor="middle" x="138" y="-119.3" font-family="Times New Roman,serif" font-size="14.00">move&#45;exception v4</text>
<text text-anchor="middle" x="138" y="-104.3" font-family="Times New Roman,serif" font-size="14.00">monitor&#45;exit v5</text>
<text text-anchor="middle" x="138" y="-89.3" font-family="Times New Roman,serif" font-size="14.00">throw v4</text>
</g>
<!-- addr_396444&#45;&gt;addr_396484 -->
<g id="edge4" class="edge">
<title>addr_396444&#45;&gt;addr_396484</title>
<path fill="none" stroke="black" d="M283.51,-223C265.27,-212.72 242.18,-199.45 222,-187 220.91,-186.33 219.82,-185.65 218.72,-184.97"/>
<polygon fill="black" stroke="black" points="220.54,-181.98 210.21,-179.62 216.82,-187.91 220.54,-181.98"/>
</g>
<!-- addr_396448&#45;&gt;addr_396478 -->
<g id="edge6" class="edge">
<title>addr_396448&#45;&gt;addr_396478</title>
<path fill="none" stroke="black" d="M471.17,-187.12C502.46,-230.46 544.9,-289.23 571.35,-325.87"/>
<polygon fill="black" stroke="black" points="568.7,-328.17 577.39,-334.23 574.38,-324.08 568.7,-328.17"/>
</g>
<!-- addr_396472 -->
<g id="node5" class="node">
<title>addr_396472</title>
<polygon fill="none" stroke="black" points="307,-38 159,-38 159,0 307,0 307,-38"/>
<text text-anchor="middle" x="233" y="-22.8" font-family="Times New Roman,serif" font-size="14.00">Start_Address: 396472:</text>
<text text-anchor="middle" x="233" y="-7.8" font-family="Times New Roman,serif" font-size="14.00">const/4 v4, 1</text>
</g>
<!-- addr_396448&#45;&gt;addr_396472 -->
<g id="edge5" class="edge">
<title>addr_396448&#45;&gt;addr_396472</title>
<path fill="none" stroke="black" d="M330.55,-73.95C310.68,-62.96 290.89,-52.01 274.38,-42.88"/>
<polygon fill="black" stroke="black" points="276.01,-39.79 265.56,-38.01 272.62,-45.91 276.01,-39.79"/>
</g>
<!-- addr_396472&#45;&gt;addr_396474 -->
<g id="edge7" class="edge">
<title>addr_396472&#45;&gt;addr_396474</title>
<path fill="none" stroke="black" d="M158.86,-22.61C121.36,-28.16 78.85,-41.84 55,-74 -29.91,-188.49 28.53,-373.96 58.87,-451.09"/>
<polygon fill="black" stroke="black" points="55.8,-452.84 62.77,-460.81 62.3,-450.23 55.8,-452.84"/>
</g>
<!-- addr_396484&#45;&gt;addr_396474 -->
<g id="edge8" class="edge">
<title>addr_396484&#45;&gt;addr_396474</title>
<path fill="none" stroke="black" d="M122.67,-179.53C112.78,-212.31 100.41,-256.89 93,-297 83.2,-350.05 78.17,-412.45 75.82,-450.74"/>
<polygon fill="black" stroke="black" points="72.31,-450.68 75.22,-460.87 79.3,-451.09 72.31,-450.68"/>
</g>
<!-- addr_396420 -->
<g id="node7" class="node">
<title>addr_396420</title>
<polygon fill="none" stroke="black" points="503.5,-425 102.5,-425 102.5,-297 503.5,-297 503.5,-425"/>
<text text-anchor="middle" x="303" y="-409.8" font-family="Times New Roman,serif" font-size="14.00">Start_Address: 396420:</text>
<text text-anchor="middle" x="303" y="-394.8" font-family="Times New Roman,serif" font-size="14.00">monitor&#45;enter v5</text>
<text text-anchor="middle" x="303" y="-379.8" font-family="Times New Roman,serif" font-size="14.00">invoke&#45;static {v6, v7}, Ljwtc/chess/Move;&#45;&gt;makeMove(II)I</text>
<text text-anchor="middle" x="303" y="-364.8" font-family="Times New Roman,serif" font-size="14.00">move&#45;result v0</text>
<text text-anchor="middle" x="303" y="-349.8" font-family="Times New Roman,serif" font-size="14.00">iget&#45;object v4, v5, Ljwtc/chess/GameControl;&#45;&gt;_jni:Ljwtc/chess/JNI;</text>
<text text-anchor="middle" x="303" y="-334.8" font-family="Times New Roman,serif" font-size="14.00">invoke&#45;virtual {v4}, Ljwtc/chess/JNI;&#45;&gt;getMoveArraySize()I</text>
<text text-anchor="middle" x="303" y="-319.8" font-family="Times New Roman,serif" font-size="14.00">move&#45;result v3</text>
<text text-anchor="middle" x="303" y="-304.8" font-family="Times New Roman,serif" font-size="14.00">const/4 v1, 0</text>
</g>
<!-- addr_396420&#45;&gt;addr_396444 -->
<g id="edge9" class="edge">
<title>addr_396420&#45;&gt;addr_396444</title>
<path fill="none" stroke="black" d="M310.03,-296.71C311.01,-287.92 311.97,-279.28 312.82,-271.59"/>
<polygon fill="black" stroke="black" points="316.33,-271.75 313.95,-261.43 309.37,-270.98 316.33,-271.75"/>
</g>
</g>
</svg>
